<svg xmlns="http://www.w3.org/2000/svg" viewBox="0 0 1200 1500" width="1200" height="1500" preserveAspectRatio="xMidYMid slice"><!-- SHAVISTA placeholder artwork. Replace with final photography. --><defs><filter id="grain" x="0" y="0" width="100%" height="100%"><feTurbulence type="fractalNoise" baseFrequency=".8" numOctaves="2" stitchTiles="stitch"/><feColorMatrix values="0 0 0 0 1  0 0 0 0 .95  0 0 0 0 .88  0 0 0 .09 0"/></filter><filter id="b8" filterUnits="userSpaceOnUse" x="-600" y="-600" width="3200" height="2800"><feGaussianBlur stdDeviation="8"/></filter><filter id="b20" filterUnits="userSpaceOnUse" x="-600" y="-600" width="3200" height="2800"><feGaussianBlur stdDeviation="20"/></filter><filter id="b40" filterUnits="userSpaceOnUse" x="-600" y="-600" width="3200" height="2800"><feGaussianBlur stdDeviation="40"/></filter><filter id="b3" filterUnits="userSpaceOnUse" x="-600" y="-600" width="3200" height="2800"><feGaussianBlur stdDeviation="3"/></filter><radialGradient id="glowWarm" cx="0.5" cy="0.5" r="0.5"><stop offset="0" stop-color="#A88658" stop-opacity="0.55"/><stop offset="0.45" stop-color="#A88658" stop-opacity="0.14"/><stop offset="1" stop-color="#A88658" stop-opacity="0"/></radialGradient><radialGradient id="glowIvory" cx="0.5" cy="0.5" r="0.5"><stop offset="0" stop-color="#F4F0E8" stop-opacity="0.5"/><stop offset="0.5" stop-color="#F4F0E8" stop-opacity="0.1"/><stop offset="1" stop-color="#F4F0E8" stop-opacity="0"/></radialGradient><radialGradient id="bubble" cx="0.5" cy="0.5" r="0.5" fx="0.35" fy="0.3"><stop offset="0" stop-color="#ffffff" stop-opacity="0.0"/><stop offset="0.72" stop-color="#ffffff" stop-opacity="0.05"/><stop offset="0.9" stop-color="#ffffff" stop-opacity="0.55"/><stop offset="1" stop-color="#c9c0b0" stop-opacity="0.4"/></radialGradient><radialGradient id="vignette" cx="0.5" cy="0.5" r="0.5"><stop offset="0.45" stop-color="#000" stop-opacity="0"/><stop offset="1" stop-color="#000" stop-opacity="0.62"/></radialGradient><radialGradient id="vignetteSoft" cx="0.5" cy="0.5" r="0.5"><stop offset="0.5" stop-color="#5c4a36" stop-opacity="0"/><stop offset="1" stop-color="#5c4a36" stop-opacity="0.35"/></radialGradient><radialGradient id="foam" cx="0.5" cy="0.5" r="0.5" fx="0.38" fy="0.32"><stop offset="0" stop-color="#fffdf9" stop-opacity="0.0"/><stop offset="0.7" stop-color="#fffdf9" stop-opacity="0.25"/><stop offset="0.88" stop-color="#ffffff" stop-opacity="0.85"/><stop offset="0.95" stop-color="#a99f8e" stop-opacity="0.55"/><stop offset="1" stop-color="#8f8574" stop-opacity="0.35"/></radialGradient><linearGradient id="bg2" x1="0" y1="0" x2="0" y2="1"><stop offset="0" stop-color="#2e2a25" stop-opacity="1"/><stop offset="1" stop-color="#171816" stop-opacity="1"/></linearGradient><linearGradient id="wood" x1="0" y1="0" x2="0" y2="1"><stop offset="0" stop-color="#3d3127" stop-opacity="1"/><stop offset="1" stop-color="#1a1714" stop-opacity="1"/></linearGradient><linearGradient id="towel" x1="0" y1="0" x2="0" y2="1"><stop offset="0" stop-color="#fbf8f1" stop-opacity="1"/><stop offset="0.6" stop-color="#e8e1d4" stop-opacity="1"/><stop offset="1" stop-color="#b9b1a2" stop-opacity="1"/></linearGradient><linearGradient id="scale" x1="0" y1="0" x2="0" y2="1"><stop offset="0" stop-color="#0c0b0a" stop-opacity="1"/><stop offset="0.45" stop-color="#3a2f25" stop-opacity="1"/><stop offset="0.55" stop-color="#54432f" stop-opacity="1"/><stop offset="1" stop-color="#0e0d0b" stop-opacity="1"/></linearGradient><linearGradient id="blade" x1="0" y1="0" x2="0" y2="1"><stop offset="0" stop-color="#8b8a86" stop-opacity="1"/><stop offset="0.5" stop-color="#e9e7e2" stop-opacity="1"/><stop offset="1" stop-color="#6e6d69" stop-opacity="1"/></linearGradient><linearGradient id="beam" x1="0" y1="0" x2="1" y2="1"><stop offset="0" stop-color="#F4F0E8" stop-opacity="0.16"/><stop offset="1" stop-color="#F4F0E8" stop-opacity="0"/></linearGradient></defs><rect width="1200" height="1500" fill="url(#bg2)"/><path d="M0 0 L520 0 L1200 900 L1200 1250 Z" fill="url(#beam)" filter="url(#b40)"/><circle cx="260" cy="300" r="700" fill="url(#glowWarm)" opacity="0.7"/><circle cx="849" cy="371" r="67" fill="#F4F0E8" opacity="0.049" filter="url(#b8)"/><circle cx="879" cy="385" r="33" fill="#F4F0E8" opacity="0.050" filter="url(#b8)"/><circle cx="946" cy="492" r="29" fill="#F4F0E8" opacity="0.042" filter="url(#b8)"/><circle cx="650" cy="501" r="56" fill="#F4F0E8" opacity="0.032" filter="url(#b8)"/><circle cx="1140" cy="582" r="54" fill="#F4F0E8" opacity="0.055" filter="url(#b8)"/><circle cx="687" cy="88" r="49" fill="#F4F0E8" opacity="0.032" filter="url(#b8)"/><circle cx="705" cy="206" r="26" fill="#F4F0E8" opacity="0.049" filter="url(#b8)"/><circle cx="842" cy="518" r="48" fill="#F4F0E8" opacity="0.056" filter="url(#b8)"/><rect y="1000" width="1200" height="500" fill="url(#wood)"/><path d="M0 1010 C400 1000 800 1020 1200 1008" stroke="#000" stroke-width="1.5" opacity=".18" fill="none"/><path d="M0 1049 C400 1037 800 1057 1200 1045" stroke="#000" stroke-width="1.5" opacity=".18" fill="none"/><path d="M0 1083 C400 1074 800 1094 1200 1082" stroke="#000" stroke-width="1.5" opacity=".18" fill="none"/><path d="M0 1118 C400 1111 800 1131 1200 1119" stroke="#000" stroke-width="1.5" opacity=".18" fill="none"/><path d="M0 1164 C400 1148 800 1168 1200 1156" stroke="#000" stroke-width="1.5" opacity=".18" fill="none"/><path d="M0 1201 C400 1185 800 1205 1200 1193" stroke="#000" stroke-width="1.5" opacity=".18" fill="none"/><path d="M0 1236 C400 1222 800 1242 1200 1230" stroke="#000" stroke-width="1.5" opacity=".18" fill="none"/><path d="M0 1271 C400 1259 800 1279 1200 1267" stroke="#000" stroke-width="1.5" opacity=".18" fill="none"/><path d="M0 1304 C400 1296 800 1316 1200 1304" stroke="#000" stroke-width="1.5" opacity=".18" fill="none"/><path d="M0 1340 C400 1333 800 1353 1200 1341" stroke="#000" stroke-width="1.5" opacity=".18" fill="none"/><path d="M0 1377 C400 1370 800 1390 1200 1378" stroke="#000" stroke-width="1.5" opacity=".18" fill="none"/><path d="M0 1412 C400 1407 800 1427 1200 1415" stroke="#000" stroke-width="1.5" opacity=".18" fill="none"/><path d="M0 1457 C400 1444 800 1464 1200 1452" stroke="#000" stroke-width="1.5" opacity=".18" fill="none"/><ellipse cx="600" cy="1180" rx="470" ry="50" fill="#000" opacity=".55" filter="url(#b20)"/><rect x="190.0" y="1060" width="820" height="118" rx="54" fill="url(#towel)"/><path d="M230.0 1090 H970.0" stroke="#fff" stroke-width="4" opacity=".6" filter="url(#b3)"/><path d="M220.0 1156 H980.0" stroke="#9e9688" stroke-width="3" opacity=".5"/><path d="M250.0 1100 v50" stroke="#c9c1b3" stroke-width="1.5" opacity=".35"/><path d="M276.0 1100 v50" stroke="#c9c1b3" stroke-width="1.5" opacity=".35"/><path d="M302.0 1100 v50" stroke="#c9c1b3" stroke-width="1.5" opacity=".35"/><path d="M328.0 1100 v50" stroke="#c9c1b3" stroke-width="1.5" opacity=".35"/><path d="M354.0 1100 v50" stroke="#c9c1b3" stroke-width="1.5" opacity=".35"/><path d="M380.0 1100 v50" stroke="#c9c1b3" stroke-width="1.5" opacity=".35"/><path d="M406.0 1100 v50" stroke="#c9c1b3" stroke-width="1.5" opacity=".35"/><path d="M432.0 1100 v50" stroke="#c9c1b3" stroke-width="1.5" opacity=".35"/><path d="M458.0 1100 v50" stroke="#c9c1b3" stroke-width="1.5" opacity=".35"/><path d="M484.0 1100 v50" stroke="#c9c1b3" stroke-width="1.5" opacity=".35"/><path d="M510.0 1100 v50" stroke="#c9c1b3" stroke-width="1.5" opacity=".35"/><path d="M536.0 1100 v50" stroke="#c9c1b3" stroke-width="1.5" opacity=".35"/><path d="M562.0 1100 v50" stroke="#c9c1b3" stroke-width="1.5" opacity=".35"/><path d="M588.0 1100 v50" stroke="#c9c1b3" stroke-width="1.5" opacity=".35"/><path d="M614.0 1100 v50" stroke="#c9c1b3" stroke-width="1.5" opacity=".35"/><path d="M640.0 1100 v50" stroke="#c9c1b3" stroke-width="1.5" opacity=".35"/><path d="M666.0 1100 v50" stroke="#c9c1b3" stroke-width="1.5" opacity=".35"/><path d="M692.0 1100 v50" stroke="#c9c1b3" stroke-width="1.5" opacity=".35"/><path d="M718.0 1100 v50" stroke="#c9c1b3" stroke-width="1.5" opacity=".35"/><path d="M744.0 1100 v50" stroke="#c9c1b3" stroke-width="1.5" opacity=".35"/><path d="M770.0 1100 v50" stroke="#c9c1b3" stroke-width="1.5" opacity=".35"/><path d="M796.0 1100 v50" stroke="#c9c1b3" stroke-width="1.5" opacity=".35"/><path d="M822.0 1100 v50" stroke="#c9c1b3" stroke-width="1.5" opacity=".35"/><path d="M848.0 1100 v50" stroke="#c9c1b3" stroke-width="1.5" opacity=".35"/><path d="M874.0 1100 v50" stroke="#c9c1b3" stroke-width="1.5" opacity=".35"/><path d="M900.0 1100 v50" stroke="#c9c1b3" stroke-width="1.5" opacity=".35"/><rect x="224.0" y="950" width="780" height="118" rx="54" fill="url(#towel)"/><path d="M264.0 980 H964.0" stroke="#fff" stroke-width="4" opacity=".6" filter="url(#b3)"/><path d="M254.0 1046 H974.0" stroke="#9e9688" stroke-width="3" opacity=".5"/><path d="M284.0 990 v50" stroke="#c9c1b3" stroke-width="1.5" opacity=".35"/><path d="M310.0 990 v50" stroke="#c9c1b3" stroke-width="1.5" opacity=".35"/><path d="M336.0 990 v50" stroke="#c9c1b3" stroke-width="1.5" opacity=".35"/><path d="M362.0 990 v50" stroke="#c9c1b3" stroke-width="1.5" opacity=".35"/><path d="M388.0 990 v50" stroke="#c9c1b3" stroke-width="1.5" opacity=".35"/><path d="M414.0 990 v50" stroke="#c9c1b3" stroke-width="1.5" opacity=".35"/><path d="M440.0 990 v50" stroke="#c9c1b3" stroke-width="1.5" opacity=".35"/><path d="M466.0 990 v50" stroke="#c9c1b3" stroke-width="1.5" opacity=".35"/><path d="M492.0 990 v50" stroke="#c9c1b3" stroke-width="1.5" opacity=".35"/><path d="M518.0 990 v50" stroke="#c9c1b3" stroke-width="1.5" opacity=".35"/><path d="M544.0 990 v50" stroke="#c9c1b3" stroke-width="1.5" opacity=".35"/><path d="M570.0 990 v50" stroke="#c9c1b3" stroke-width="1.5" opacity=".35"/><path d="M596.0 990 v50" stroke="#c9c1b3" stroke-width="1.5" opacity=".35"/><path d="M622.0 990 v50" stroke="#c9c1b3" stroke-width="1.5" opacity=".35"/><path d="M648.0 990 v50" stroke="#c9c1b3" stroke-width="1.5" opacity=".35"/><path d="M674.0 990 v50" stroke="#c9c1b3" stroke-width="1.5" opacity=".35"/><path d="M700.0 990 v50" stroke="#c9c1b3" stroke-width="1.5" opacity=".35"/><path d="M726.0 990 v50" stroke="#c9c1b3" stroke-width="1.5" opacity=".35"/><path d="M752.0 990 v50" stroke="#c9c1b3" stroke-width="1.5" opacity=".35"/><path d="M778.0 990 v50" stroke="#c9c1b3" stroke-width="1.5" opacity=".35"/><path d="M804.0 990 v50" stroke="#c9c1b3" stroke-width="1.5" opacity=".35"/><path d="M830.0 990 v50" stroke="#c9c1b3" stroke-width="1.5" opacity=".35"/><path d="M856.0 990 v50" stroke="#c9c1b3" stroke-width="1.5" opacity=".35"/><path d="M882.0 990 v50" stroke="#c9c1b3" stroke-width="1.5" opacity=".35"/><path d="M908.0 990 v50" stroke="#c9c1b3" stroke-width="1.5" opacity=".35"/><rect x="258.0" y="840" width="740" height="118" rx="54" fill="url(#towel)"/><path d="M298.0 870 H958.0" stroke="#fff" stroke-width="4" opacity=".6" filter="url(#b3)"/><path d="M288.0 936 H968.0" stroke="#9e9688" stroke-width="3" opacity=".5"/><path d="M318.0 880 v50" stroke="#c9c1b3" stroke-width="1.5" opacity=".35"/><path d="M344.0 880 v50" stroke="#c9c1b3" stroke-width="1.5" opacity=".35"/><path d="M370.0 880 v50" stroke="#c9c1b3" stroke-width="1.5" opacity=".35"/><path d="M396.0 880 v50" stroke="#c9c1b3" stroke-width="1.5" opacity=".35"/><path d="M422.0 880 v50" stroke="#c9c1b3" stroke-width="1.5" opacity=".35"/><path d="M448.0 880 v50" stroke="#c9c1b3" stroke-width="1.5" opacity=".35"/><path d="M474.0 880 v50" stroke="#c9c1b3" stroke-width="1.5" opacity=".35"/><path d="M500.0 880 v50" stroke="#c9c1b3" stroke-width="1.5" opacity=".35"/><path d="M526.0 880 v50" stroke="#c9c1b3" stroke-width="1.5" opacity=".35"/><path d="M552.0 880 v50" stroke="#c9c1b3" stroke-width="1.5" opacity=".35"/><path d="M578.0 880 v50" stroke="#c9c1b3" stroke-width="1.5" opacity=".35"/><path d="M604.0 880 v50" stroke="#c9c1b3" stroke-width="1.5" opacity=".35"/><path d="M630.0 880 v50" stroke="#c9c1b3" stroke-width="1.5" opacity=".35"/><path d="M656.0 880 v50" stroke="#c9c1b3" stroke-width="1.5" opacity=".35"/><path d="M682.0 880 v50" stroke="#c9c1b3" stroke-width="1.5" opacity=".35"/><path d="M708.0 880 v50" stroke="#c9c1b3" stroke-width="1.5" opacity=".35"/><path d="M734.0 880 v50" stroke="#c9c1b3" stroke-width="1.5" opacity=".35"/><path d="M760.0 880 v50" stroke="#c9c1b3" stroke-width="1.5" opacity=".35"/><path d="M786.0 880 v50" stroke="#c9c1b3" stroke-width="1.5" opacity=".35"/><path d="M812.0 880 v50" stroke="#c9c1b3" stroke-width="1.5" opacity=".35"/><path d="M838.0 880 v50" stroke="#c9c1b3" stroke-width="1.5" opacity=".35"/><path d="M864.0 880 v50" stroke="#c9c1b3" stroke-width="1.5" opacity=".35"/><path d="M890.0 880 v50" stroke="#c9c1b3" stroke-width="1.5" opacity=".35"/><g transform="translate(610 812) rotate(-9)"><ellipse cx="0" cy="22" rx="330" ry="16" fill="#000" opacity=".5" filter="url(#b8)"/><path d="M-330 -4 C-330 -26 -310 -30 -280 -30 L250 -30 C300 -30 330 -18 330 0 C330 18 300 30 250 30 L-280 30 C-310 30 -330 22 -330 4 Z" fill="url(#scale)"/><path d="M-300 -18 H260" stroke="#fff" stroke-width="3" opacity=".12"/><path d="M-262 -30 C-100 -36 120 -36 240 -30" stroke="url(#blade)" stroke-width="7" fill="none"/><path d="M-262 -33 C-100 -39 120 -39 240 -33" stroke="#fff" stroke-width="1.2" opacity=".6" fill="none"/><circle cx="-285" cy="0" r="9" fill="#A88658"/><circle cx="-285" cy="0" r="4" fill="#f0d9ae"/><circle cx="290" cy="0" r="9" fill="#A88658"/><circle cx="290" cy="0" r="4" fill="#f0d9ae"/><path d="M-262 -30 L-330 -30 L-360 -14 L-372 4 L-262 4 Z" fill="url(#blade)"/><path d="M-372 4 L-262 4" stroke="#fff" stroke-width="1.5" opacity=".7"/></g><rect width="1200" height="1500" fill="url(#vignette)"/><rect width="1200" height="1500" filter="url(#grain)"/></svg>